<svg width="14" height="12" viewBox="0 0 14 12" fill="none" xmlns="http://www.w3.org/2000/svg">
<path d="M7.00002 2.20833L6.68502 2.51166C6.72583 2.554 6.77476 2.58768 6.82888 2.61068C6.88301 2.63369 6.94121 2.64555 7.00002 2.64555C7.05883 2.64555 7.11703 2.63369 7.17116 2.61068C7.22528 2.58768 7.27421 2.554 7.31502 2.51166L7.00002 2.20833ZM5.49852 9.68783C4.61419 8.99074 3.6476 8.30999 2.88052 7.44666C2.12919 6.59966 1.60419 5.61208 1.60419 4.32991H0.729187C0.729187 5.88508 1.37669 7.07158 2.2266 8.02766C3.06077 8.96683 4.12477 9.71933 4.9566 10.375L5.49852 9.68783ZM1.60419 4.32991C1.60419 3.07574 2.31294 2.02341 3.28069 1.58066C4.22102 1.15074 5.48452 1.26449 6.68502 2.51166L7.31502 1.90558C5.89169 0.425659 4.23735 0.181242 2.91669 0.784992C1.62519 1.37591 0.729187 2.74791 0.729187 4.32991H1.60419ZM4.9566 10.375C5.25585 10.6107 5.57669 10.8615 5.9016 11.0517C6.22652 11.2412 6.59752 11.3958 7.00002 11.3958V10.5208C6.81919 10.5208 6.60685 10.4508 6.34319 10.2962C6.07894 10.1422 5.80535 9.92991 5.49852 9.68783L4.9566 10.375ZM9.04344 10.375C9.87527 9.71874 10.9393 8.96741 11.7734 8.02766C12.6234 7.07099 13.2709 5.88508 13.2709 4.32991H12.3959C12.3959 5.61208 11.8709 6.59966 11.1195 7.44666C10.3524 8.30999 9.38585 8.99074 8.50152 9.68783L9.04344 10.375ZM13.2709 4.32991C13.2709 2.74791 12.3754 1.37591 11.0834 0.784992C9.76269 0.181242 8.10952 0.425659 6.68502 1.90499L7.31502 2.51166C8.51552 1.26508 9.77902 1.15074 10.7194 1.58066C11.6871 2.02341 12.3959 3.07516 12.3959 4.32991H13.2709ZM8.50152 9.68783C8.19469 9.92991 7.9211 10.1422 7.65685 10.2962C7.39319 10.4502 7.18085 10.5208 7.00002 10.5208V11.3958C7.40252 11.3958 7.77352 11.2412 8.09844 11.0517C8.42394 10.8615 8.74419 10.6107 9.04344 10.375L8.50152 9.68783Z" fill="#FAFAFA"/>
</svg>
