<svg width="43.000000" height="43.000000" viewBox="0 0 43 43" fill="none" xmlns="http://www.w3.org/2000/svg" xmlns:xlink="http://www.w3.org/1999/xlink">
	<desc>
			Created with Pixso.
	</desc>
	<defs/>
	<mask id="mask2138_717" mask-type="alpha" maskUnits="userSpaceOnUse" x="-0.230164" y="0.000000" width="42.460388" height="42.460327">
		<rect id="Bounding box" x="-0.230164" width="42.460373" height="42.460373" fill="#D9D9D9" fill-opacity="1.000000"/>
	</mask>
	<g mask="url(#mask2138_717)">
		<path id="skillet_cooktop" d="M10.57 26.35C9.1 26.35 7.84 25.84 6.81 24.8C5.78 23.77 5.26 22.52 5.26 21.04L5.26 15.74C5.26 15.24 5.43 14.81 5.77 14.48C6.11 14.14 6.53 13.97 7.03 13.97L28.31 13.97C28.46 12.99 28.85 12.12 29.5 11.36C30.15 10.59 30.95 10.05 31.89 9.72L38.39 7.55C38.86 7.41 39.32 7.44 39.76 7.64C40.21 7.85 40.5 8.19 40.65 8.66C40.8 9.13 40.76 9.59 40.54 10.03C40.32 10.47 39.97 10.77 39.5 10.92L33 13.08C32.64 13.2 32.35 13.41 32.13 13.72C31.91 14.03 31.8 14.38 31.8 14.76L31.8 21.04C31.8 22.52 31.29 23.77 30.25 24.8C29.22 25.84 27.97 26.35 26.49 26.35L10.57 26.35ZM15.88 35.2L15.88 31.66L5.26 31.66C4.76 31.66 4.34 31.49 4 31.15C3.66 30.81 3.5 30.39 3.5 29.89C3.5 29.39 3.66 28.97 4 28.63C4.34 28.29 4.76 28.12 5.26 28.12L15.88 28.12C16.85 28.12 17.69 28.47 18.38 29.16C19.07 29.85 19.42 30.69 19.42 31.66L19.42 35.2C19.42 35.7 19.25 36.12 18.91 36.46C18.57 36.8 18.15 36.97 17.65 36.97C17.15 36.97 16.73 36.8 16.39 36.46C16.05 36.12 15.88 35.7 15.88 35.2ZM22.96 35.2L22.96 31.66C22.96 30.69 23.3 29.85 24 29.16C24.69 28.47 25.52 28.12 26.49 28.12L37.11 28.12C37.61 28.12 38.03 28.29 38.37 28.63C38.71 28.97 38.88 29.39 38.88 29.89C38.88 30.39 38.71 30.81 38.37 31.15C38.03 31.49 37.61 31.66 37.11 31.66L26.49 31.66L26.49 35.2C26.49 35.7 26.32 36.12 25.99 36.46C25.65 36.8 25.23 36.97 24.73 36.97C24.22 36.97 23.8 36.8 23.46 36.46C23.13 36.12 22.96 35.7 22.96 35.2Z" fill="#FA9E31" fill-opacity="1.000000" fill-rule="nonzero"/>
	</g>
</svg>
